<svg width="18" height="18" viewBox="0 0 18 18" fill="none" xmlns="http://www.w3.org/2000/svg">
<g clip-path="url(#clip0_10_94)">
<path d="M6.46875 0.84375C6.46875 0.376172 6.09258 0 5.625 0C5.15742 0 4.78125 0.376172 4.78125 0.84375V2.25H4.5C3.25898 2.25 2.25 3.25898 2.25 4.5V4.78125H0.84375C0.376172 4.78125 0 5.15742 0 5.625C0 6.09258 0.376172 6.46875 0.84375 6.46875H2.25V8.15625H0.84375C0.376172 8.15625 0 8.53242 0 9C0 9.46758 0.376172 9.84375 0.84375 9.84375H2.25V11.5312H0.84375C0.376172 11.5312 0 11.9074 0 12.375C0 12.8426 0.376172 13.2188 0.84375 13.2188H2.25V13.5C2.25 14.741 3.25898 15.75 4.5 15.75H4.78125V17.1562C4.78125 17.6238 5.15742 18 5.625 18C6.09258 18 6.46875 17.6238 6.46875 17.1562V15.75H8.15625V17.1562C8.15625 17.6238 8.53242 18 9 18C9.46758 18 9.84375 17.6238 9.84375 17.1562V15.75H11.5312V17.1562C11.5312 17.6238 11.9074 18 12.375 18C12.8426 18 13.2188 17.6238 13.2188 17.1562V15.75H13.5C14.741 15.75 15.75 14.741 15.75 13.5V13.2188H17.1562C17.6238 13.2188 18 12.8426 18 12.375C18 11.9074 17.6238 11.5312 17.1562 11.5312H15.75V9.84375H17.1562C17.6238 9.84375 18 9.46758 18 9C18 8.53242 17.6238 8.15625 17.1562 8.15625H15.75V6.46875H17.1562C17.6238 6.46875 18 6.09258 18 5.625C18 5.15742 17.6238 4.78125 17.1562 4.78125H15.75V4.5C15.75 3.25898 14.741 2.25 13.5 2.25H13.2188V0.84375C13.2188 0.376172 12.8426 0 12.375 0C11.9074 0 11.5312 0.376172 11.5312 0.84375V2.25H9.84375V0.84375C9.84375 0.376172 9.46758 0 9 0C8.53242 0 8.15625 0.376172 8.15625 0.84375V2.25H6.46875V0.84375ZM3.9375 4.5C3.9375 4.19063 4.19063 3.9375 4.5 3.9375H13.5C13.8094 3.9375 14.0625 4.19063 14.0625 4.5V13.5C14.0625 13.8094 13.8094 14.0625 13.5 14.0625H4.5C4.19063 14.0625 3.9375 13.8094 3.9375 13.5V4.5ZM11.8125 6.04688C11.4258 6.04688 11.1094 6.36328 11.1094 6.75V11.25C11.1094 11.6367 11.4258 11.9531 11.8125 11.9531C12.1992 11.9531 12.5156 11.6367 12.5156 11.25V6.75C12.5156 6.36328 12.1992 6.04688 11.8125 6.04688ZM8.23711 6.46875C8.12461 6.21211 7.87148 6.04688 7.59375 6.04688C7.31602 6.04688 7.06289 6.21211 6.95039 6.46875L4.98164 10.9688C4.82695 11.3238 4.98867 11.7387 5.34375 11.8934C5.69883 12.048 6.11367 11.8863 6.26836 11.5312L6.45469 11.1094H8.73281L8.91914 11.5312C9.07383 11.8863 9.48867 12.048 9.84375 11.8934C10.1988 11.7387 10.3605 11.3238 10.2059 10.9688L8.23711 6.46875ZM7.59375 8.5043L8.11758 9.70312H7.06992L7.59375 8.5043Z" fill="#475569"/>
</g>
<defs>
<clipPath id="clip0_10_94">
<rect width="18" height="18" fill="white"/>
</clipPath>
</defs>
</svg>
