<svg width="18" height="18" viewBox="0 0 18 18" fill="none" xmlns="http://www.w3.org/2000/svg">
<g clip-path="url(#clip0_10_64)">
<path d="M1.92857 0C0.863839 0 0 0.863839 0 1.92857V8.35714C0 9.42188 0.863839 10.2857 1.92857 10.2857H5.78571C6.85045 10.2857 7.71429 9.42188 7.71429 8.35714V1.92857C7.71429 0.863839 6.85045 0 5.78571 0H1.92857ZM12.2143 7.71429C11.1496 7.71429 10.2857 8.57812 10.2857 9.64286V16.0714C10.2857 17.1362 11.1496 18 12.2143 18H16.0714C17.1362 18 18 17.1362 18 16.0714V9.64286C18 8.57812 17.1362 7.71429 16.0714 7.71429H12.2143ZM0 14.7857V16.0714C0 17.1362 0.863839 18 1.92857 18H5.78571C6.85045 18 7.71429 17.1362 7.71429 16.0714V14.7857C7.71429 13.721 6.85045 12.8571 5.78571 12.8571H1.92857C0.863839 12.8571 0 13.721 0 14.7857ZM12.2143 0C11.1496 0 10.2857 0.863839 10.2857 1.92857V3.21429C10.2857 4.27902 11.1496 5.14286 12.2143 5.14286H16.0714C17.1362 5.14286 18 4.27902 18 3.21429V1.92857C18 0.863839 17.1362 0 16.0714 0H12.2143Z" fill="#405AE8"/>
</g>
<defs>
<clipPath id="clip0_10_64">
<rect width="18" height="18" fill="white"/>
</clipPath>
</defs>
</svg>
