<svg width="20" height="20" viewBox="0 0 20 20" fill="none" xmlns="http://www.w3.org/2000/svg">
<path d="M10.0002 0.862549C10.607 0.862549 11.1995 0.923227 11.7778 1.03388C12.0597 1.08742 12.5559 1.2516 12.8271 1.75131C12.8985 1.88337 12.9556 2.02258 12.9913 2.17249L13.3233 3.54668C13.3732 3.7537 13.723 3.95715 13.9265 3.89647L15.2828 3.49671C15.4256 3.45387 15.5719 3.43246 15.7183 3.42889C16.2929 3.41104 16.682 3.76441 16.8712 3.97856C17.66 4.87446 18.2668 5.92741 18.6523 7.05889C18.7451 7.33016 18.8521 7.837 18.5559 8.32243C18.4774 8.45092 18.381 8.57228 18.2703 8.67936L17.246 9.65378C17.096 9.79655 17.096 10.207 17.246 10.3498L18.2703 11.3242C18.381 11.4313 18.4774 11.5527 18.5559 11.6812C18.8486 12.1666 18.7415 12.6734 18.6523 12.9447C18.2668 14.0762 17.66 15.1255 16.8712 16.025C16.682 16.2392 16.2894 16.5925 15.7183 16.5747C15.5719 16.5711 15.4256 16.5461 15.2828 16.5069L13.9265 16.1035C13.723 16.0429 13.3732 16.2463 13.3233 16.4533L12.9913 17.8275C12.9556 17.9774 12.8985 18.1202 12.8271 18.2487C12.5523 18.7484 12.0562 18.909 11.7778 18.9661C11.1995 19.0768 10.607 19.1375 10.0002 19.1375C9.39345 19.1375 8.80094 19.0768 8.22271 18.9661C7.94074 18.9126 7.4446 18.7484 7.17333 18.2487C7.10195 18.1166 7.04484 17.9774 7.00914 17.8275L6.6772 16.4533C6.62723 16.2463 6.27743 16.0429 6.07398 16.1035L4.71764 16.5033C4.57487 16.5461 4.42853 16.5676 4.28219 16.5711C3.70753 16.589 3.31847 16.2356 3.1293 16.0214C2.34405 15.1255 1.73369 14.0726 1.34821 12.9411C1.2554 12.6699 1.14832 12.163 1.44458 11.6776C1.5231 11.5491 1.61947 11.4277 1.73012 11.3207L2.75452 10.3462C2.90443 10.2035 2.90443 9.79298 2.75452 9.65021L1.72655 8.67579C1.6159 8.56871 1.51953 8.44735 1.44101 8.31886C1.14832 7.83343 1.2554 7.32659 1.34821 7.05889C1.73369 5.92741 2.34048 4.87803 3.1293 3.97856C3.31847 3.76441 3.71109 3.41104 4.28219 3.42889C4.42853 3.43246 4.57487 3.45744 4.71764 3.49671L6.07398 3.89647C6.27743 3.95715 6.62723 3.7537 6.6772 3.54668L7.00914 2.17249C7.04484 2.02258 7.10195 1.8798 7.17333 1.75131C7.44817 1.2516 7.94431 1.09099 8.22271 1.03388C8.80094 0.923227 9.39345 0.862549 10.0002 0.862549ZM8.64746 2.69718L8.34407 3.95001C8.06566 5.1029 6.72717 5.87387 5.58856 5.54193L4.35714 5.17786C3.7682 5.86673 3.30419 6.66626 3.0008 7.5229L3.93596 8.41166C4.7926 9.22546 4.7926 10.7745 3.93596 11.5884L3.0008 12.4771C3.30419 13.3337 3.7682 14.1333 4.35714 14.8222L5.59213 14.4581C6.72717 14.1226 8.06923 14.8971 8.34764 16.05L8.65103 17.3028C9.52908 17.4635 10.4821 17.4635 11.3601 17.3028L11.6635 16.05C11.9419 14.8971 13.2804 14.1261 14.4191 14.4581L15.654 14.8222C16.243 14.1333 16.707 13.3337 17.0104 12.4771L16.0752 11.5884C15.2186 10.7745 15.2186 9.22546 16.0752 8.41166L17.0104 7.5229C16.707 6.66626 16.243 5.86673 15.654 5.17786L14.4191 5.54193C13.284 5.87744 11.9419 5.1029 11.6635 3.95001L11.3601 2.69718C10.4821 2.53656 9.52908 2.53656 8.65103 2.69718H8.64746ZM8.28696 10C8.28696 10.4544 8.46747 10.8902 8.78877 11.2115C9.11007 11.5328 9.54585 11.7133 10.0002 11.7133C10.4546 11.7133 10.8904 11.5328 11.2117 11.2115C11.533 10.8902 11.7135 10.4544 11.7135 10C11.7135 9.54562 11.533 9.10984 11.2117 8.78854C10.8904 8.46724 10.4546 8.28673 10.0002 8.28673C9.54585 8.28673 9.11007 8.46724 8.78877 8.78854C8.46747 9.10984 8.28696 9.54562 8.28696 10ZM10.0002 13.4266C9.09146 13.4266 8.2199 13.0655 7.5773 12.4229C6.9347 11.7803 6.57369 10.9088 6.57369 10C6.57369 9.09123 6.9347 8.21967 7.5773 7.57707C8.2199 6.93447 9.09146 6.57346 10.0002 6.57346C10.909 6.57346 11.7806 6.93447 12.4232 7.57707C13.0658 8.21967 13.4268 9.09123 13.4268 10C13.4268 10.9088 13.0658 11.7803 12.4232 12.4229C11.7806 13.0655 10.909 13.4266 10.0002 13.4266Z" fill="#475569"/>
</svg>
