<svg width="141" height="44" viewBox="0 0 141 44" fill="none" xmlns="http://www.w3.org/2000/svg">
<path d="M54.3134 32.389C58.6115 32.389 61.6536 30.2916 61.6536 26.5445C61.6536 22.0422 58.1091 21.0916 54.2296 20.3086C51.2434 19.7213 49.0106 19.0502 49.0106 16.785C49.0106 14.7157 50.7968 13.5692 53.504 13.5692C56.4344 13.5692 58.2765 14.9953 58.6392 17.8477H61.0117C60.5092 14.1564 58.4439 11.6118 53.4482 11.6118C49.4013 11.6118 46.6664 13.5972 46.6664 16.897C46.6664 20.6721 49.6806 21.6788 53.197 22.4617C56.7695 23.2447 59.1697 23.8879 59.1697 26.6283C59.1697 29.1171 57.1881 30.3755 54.425 30.3755C50.6573 30.3755 48.5919 28.6138 48.2571 25.2301H45.8011C46.0244 29.2571 48.7037 32.3889 54.3134 32.3889V32.389ZM68.5472 32.0815C69.217 32.0815 69.8311 31.9975 70.3613 31.8857V29.9281H70.2775C70.0265 30.0121 69.524 30.1238 69.0774 30.1238C68.1565 30.1238 67.6261 29.7883 67.6261 28.7816V19.3857H70.4172V17.5401H67.6261V12.9821H65.3656V17.5401H63.2724V19.3857H65.3656V29.2849C65.3656 31.3263 66.7052 32.0814 68.5472 32.0814L68.5472 32.0815ZM72.7615 31.9975H75.0222V23.972C75.0222 21.2594 76.9759 19.5815 79.2086 19.5815C79.6551 19.5815 79.8784 19.6095 80.2134 19.7214H80.297V17.5401C80.018 17.4283 79.7948 17.3724 79.3761 17.3724C77.4502 17.3724 75.9433 18.5468 75.078 19.945H75.0222V17.5401H72.7615V31.9975V31.9975ZM85.7952 32.2772C88.251 32.2772 89.7303 31.1025 90.5955 29.984H90.6235C90.8468 31.4662 91.6282 32.1372 93.1072 32.1372C93.6933 32.1372 94.0563 32.0254 94.3353 31.9135V30.2638H94.2516C92.9957 30.5433 92.7165 29.9001 92.7165 28.7257V21.8465C92.7165 18.407 90.4558 17.2605 87.3859 17.2605C83.5624 17.2605 81.7204 19.3577 81.6365 22.1542H83.8134C83.8972 19.9729 85.0694 18.9662 87.4138 18.9662C89.4789 18.9662 90.6513 19.8891 90.6513 21.511C90.6513 23.077 89.2279 23.2727 87.1905 23.5804C83.5901 24.1397 80.9109 24.8386 80.9109 28.2502C80.9109 30.9907 83.0599 32.2772 85.7951 32.2772L85.7952 32.2772ZM83.3112 28.1944C83.3112 26.0691 85.1253 25.6776 87.386 25.2581C88.614 25.0343 89.9256 24.6709 90.6791 24.1956V26.6563C90.6791 28.3342 89.3116 30.5433 86.2974 30.5433C84.8182 30.5433 83.3112 30.1238 83.3112 28.1944ZM100.085 32.0815C100.755 32.0815 101.369 31.9975 101.899 31.8857V29.9281H101.815C101.564 30.0121 101.061 30.1238 100.615 30.1238C99.694 30.1238 99.1636 29.7883 99.1636 28.7816V19.3857H101.955V17.5401H99.1636V12.9821H96.9031V17.5401H94.8098V19.3857H96.9031V29.2849C96.9031 31.3263 98.2427 32.0814 100.085 32.0814L100.085 32.0815ZM104.299 31.9975H106.56V17.5401H104.299V31.9975ZM104.299 14.2684H106.56V12.0034H104.299V14.2684ZM109.965 31.9975H112.476V22.5737H121.659V20.4484H112.476V14.2125H123.501V12.0034H109.965V31.9975V31.9975ZM128.524 32.2772C130.98 32.2772 132.459 31.1025 133.325 29.984H133.353C133.576 31.4662 134.357 32.1372 135.836 32.1372C136.422 32.1372 136.785 32.0254 137.064 31.9135V30.2638H136.981C135.725 30.5433 135.446 29.9001 135.446 28.7257V21.8465C135.446 18.407 133.185 17.2605 130.115 17.2605C126.291 17.2605 124.449 19.3577 124.366 22.1542H126.543C126.626 19.9729 127.799 18.9662 130.143 18.9662C132.208 18.9662 133.38 19.8891 133.38 21.511C133.38 23.077 131.957 23.2727 129.92 23.5804C126.319 24.1397 123.64 24.8386 123.64 28.2502C123.64 30.9907 125.789 32.2772 128.524 32.2772V32.2772ZM126.04 28.1944C126.04 26.0691 127.854 25.6776 130.115 25.2581C131.343 25.0343 132.655 24.6709 133.408 24.1956V26.6563C133.408 28.3342 132.041 30.5433 129.027 30.5433C127.547 30.5433 126.04 30.1238 126.04 28.1944ZM138.739 31.9974H141V17.5401H138.739V31.9974ZM138.739 14.2684H141V12.0033H138.739V14.2684Z" fill="black"/>
<path fill-rule="evenodd" clip-rule="evenodd" d="M0.0148239 33.9387L3.18178 33.8386L8.9382 33.657L9.00481 33.7623L9.00497 33.7624L9.07187 33.8676L9.07203 33.8678L9.13969 33.9725L9.13985 33.9727L9.20803 34.0772L9.20819 34.0773L9.27682 34.1816L9.27698 34.1817L9.3461 34.2857H9.34626L9.41606 34.3894L9.41622 34.3896L9.48642 34.4929L9.48662 34.493L9.55751 34.5961H9.55767L9.62905 34.6989L9.62921 34.699L9.70103 34.8014L9.70119 34.8015L9.77365 34.9037H9.77385L9.84676 35.0054L9.84696 35.0056L9.92035 35.1069L9.92052 35.1071L9.99443 35.2081L9.99459 35.2082L10.0692 35.3089L10.0693 35.3091L10.1444 35.4094H10.1446L10.2201 35.5095L10.2203 35.5097L10.2964 35.6094H10.2966L10.3731 35.7087H10.3733L10.4504 35.8076L10.4506 35.8078L10.5282 35.9064H10.5284L10.6066 36.0047H10.6068L10.6854 36.1024L10.6855 36.1026L10.7647 36.1999L10.7649 36.2001L10.8445 36.2971V36.2973L10.9247 36.394H10.9249L11.0057 36.4901V36.4903L11.087 36.5861H11.0872L11.1687 36.6815L11.1689 36.6817L11.2509 36.7766L11.2511 36.7768L11.3338 36.8713H11.334L11.4172 36.9656L11.5009 37.0594H11.5011L11.5852 37.1527L11.5854 37.1529L11.67 37.2457L11.6702 37.2458L11.7551 37.3382L11.7553 37.3384L11.8409 37.4302L11.8411 37.4304L11.9271 37.5219H11.9272L12.0138 37.613L12.014 37.6131L12.101 37.7037H12.1012L12.1887 37.794L12.2767 37.8837H12.2769L12.3653 37.973H12.3655L12.4545 38.0616V38.0618L12.5439 38.15L12.5441 38.1502L12.634 38.2378V38.238L12.7244 38.3251H12.7246L12.8155 38.4121L12.9068 38.4983V38.4985L12.9986 38.5842L13.0909 38.6695L13.1837 38.7543L13.2768 38.8385L13.277 38.8386L13.3705 38.9223L13.4646 39.0055H13.4648L13.5592 39.0882H13.5594L13.6542 39.1703V39.1704L13.7497 39.2519V39.2521L13.8455 39.333H13.8457L13.942 39.4135L14.0388 39.4935L14.1361 39.5728L14.2337 39.6517L14.3152 39.7167L14.3231 39.723L14.3969 39.7814L14.4128 39.794L14.4789 39.8455L14.5031 39.8644L14.5612 39.9093L14.5937 39.9343L14.6438 39.9727L14.6845 40.0037L14.7268 40.0357L14.7757 40.0728L14.81 40.0984L14.8673 40.1412L14.8934 40.1606L14.9592 40.2092L14.9773 40.2223L15.0515 40.2766L15.0613 40.2837L15.1441 40.3435L15.1458 40.3446L15.2304 40.4052L15.2373 40.41L15.3153 40.4652L15.3306 40.476L15.4006 40.525L15.4243 40.5414L15.4863 40.5841L15.5182 40.6063L15.572 40.643L15.6126 40.6707L15.658 40.7013L15.7073 40.7345L15.7444 40.7593L15.7567 40.7676L15.8287 40.8153L15.8311 40.8169L15.8978 40.8607L15.9179 40.874L15.9935 40.9231L16.0051 40.9306L16.0895 40.9848L16.0927 40.9868L16.1805 41.0425L16.186 41.0459L16.2686 41.0978L16.2828 41.1066L16.3568 41.1525L16.4236 41.1935L16.4455 41.2069L16.4772 41.2262L16.5345 41.2608L16.575 41.2851L16.6236 41.3142L16.6731 41.3435L16.713 41.3671L16.7714 41.4013L16.8027 41.4197L16.8701 41.4588L16.8927 41.4718L16.9691 41.5154L16.9829 41.5233L17.0685 41.5717L17.0734 41.5743L17.1642 41.6249L17.1681 41.6271L17.2552 41.675L17.2681 41.6821L17.3465 41.7247L17.3684 41.7366L17.4381 41.7738L17.4691 41.7903L17.5299 41.8226L17.57 41.8435L17.6219 41.8706L17.6713 41.8962L17.6819 41.9017L17.8678 41.9961L17.8748 41.9997L17.8998 42.0122L17.977 42.0505L17.9929 42.0583L18.0796 42.1006L18.1799 42.1492L18.1823 42.1503L18.2736 42.1938L18.2855 42.1993C18.3886 42.248 18.4926 42.2957 18.5967 42.3425L18.6519 42.3673L18.701 42.3891L18.703 42.39C18.8762 42.4667 19.0507 42.5405 19.2264 42.6117L19.2272 42.6119L19.323 42.6505L19.3333 42.6546C19.5556 42.7431 19.7799 42.8275 20.006 42.9073C18.8907 43.4768 17.6641 43.8122 16.4088 43.9403C14.6672 44.1182 12.8727 43.898 11.2433 43.3509L11.2414 43.3489C8.83958 42.5545 6.6637 41.2452 4.76463 39.5987C2.90169 37.9834 1.30257 36.0412 0.0151872 33.9391L0.0148239 33.9387Z" fill="#03AD6C"/>
<path fill-rule="evenodd" clip-rule="evenodd" d="M9.7516 33.1506L13.9578 25.2807C15.2862 27.4191 16.915 29.4054 18.8063 31.0831C20.6545 32.7227 22.7534 34.0671 25.0666 34.9705C24.8227 36.3725 24.3404 37.7953 23.637 39.0851C22.9736 40.3012 22.1135 41.3982 21.072 42.2451L20.9725 42.2148L20.9651 42.2125L20.8622 42.1805L20.8584 42.1792L20.7522 42.1454L20.752 42.1452L20.6459 42.1105L20.6425 42.1094L20.5401 42.0751L20.533 42.0729L20.4344 42.0391L20.4239 42.0355L20.3292 42.0024L20.3151 41.9974L20.2242 41.965L20.2066 41.9586L20.1194 41.9268L20.0983 41.9192L20.0149 41.8882L19.9904 41.8789L19.9108 41.8488L19.8828 41.8381L19.8069 41.8087L19.7754 41.7964L19.7034 41.768L19.6683 41.7541L19.6 41.7267L19.5616 41.7111L19.4969 41.6846L19.4896 41.6816L19.4026 41.6456L19.3891 41.6398C19.29 41.5982 19.1912 41.5558 19.093 41.5123L19.0878 41.5101L19.0328 41.4857L18.9863 41.4648L18.928 41.4386L18.8851 41.4191L18.8235 41.3908L18.7841 41.3725L18.7787 41.37L18.6835 41.3254L18.6155 41.2933L18.5831 41.2778L18.512 41.2435L18.4831 41.2294L18.3834 41.1805L18.3058 41.142L18.2838 41.131L18.2033 41.0903L18.1849 41.0808L18.1011 41.038L18.0859 41.0302L17.9992 40.985L17.9874 40.9787L17.8976 40.9314L17.8893 40.9269L17.7963 40.877L17.7913 40.8743L17.6955 40.8222L17.6938 40.8213L17.5965 40.7676L17.5949 40.7667L17.4997 40.7132L17.4947 40.7106L17.403 40.6585L17.3949 40.6538L17.3068 40.603L17.2954 40.5964L17.2107 40.547L17.1962 40.5385L17.1151 40.4905L17.0974 40.4799L17.0197 40.4334L16.9989 40.4207L16.9248 40.3756L16.8346 40.3202L16.8301 40.3175L16.8029 40.3006L16.7357 40.2589L16.7055 40.2397L16.6418 40.1993L16.6084 40.1782L16.5481 40.1396L16.5118 40.1162L16.4548 40.0791L16.3777 40.0286L16.3617 40.0182L16.3193 39.9901L16.2691 39.9568L16.2237 39.9263L16.1768 39.8947L16.1285 39.862L16.0847 39.8321L16.0334 39.797L15.9931 39.7692L15.9388 39.7315L15.9017 39.7055L15.8446 39.6655L15.8107 39.6414L15.7508 39.5989L15.7202 39.5769L15.6574 39.5317L15.6299 39.5117L15.5644 39.4641L15.5399 39.4461L15.4715 39.3958L15.4503 39.3801L15.3793 39.3271L15.3612 39.3134L15.2873 39.2578L15.2722 39.2464L15.2575 39.2351L15.1838 39.1788L15.1044 39.1176L15.0954 39.1107L15.0135 39.0468L15.0076 39.0421L14.9231 38.9755L14.9202 38.9732L14.833 38.9036L14.7394 38.828L14.736 38.8253L14.6462 38.7519L14.6394 38.7465L14.5532 38.6751L14.5435 38.6669L14.4609 38.598L14.4478 38.587L14.369 38.5203L14.3526 38.5063L14.2773 38.4419L14.2579 38.4252L14.1862 38.3632L14.1636 38.3434L14.0955 38.2838L14.0698 38.2612L14.0053 38.204L13.9765 38.1784L13.9154 38.1237L13.8836 38.095L13.826 38.0428C13.7685 37.9908 13.7116 37.9384 13.6549 37.8856L13.6484 37.8795L13.6077 37.8417L13.5604 37.7973L13.5166 37.7561L13.4727 37.7144L13.4261 37.6702L13.3853 37.6311L13.336 37.5836L13.2986 37.5474L13.2464 37.4965L13.2122 37.4631L13.1936 37.4448L13.1264 37.3783L13.0687 37.3209L13.0408 37.2931L12.9806 37.2325L12.9559 37.2076L12.8929 37.1433L12.8714 37.1213L12.8057 37.0539L12.7873 37.0347L12.7189 36.9637L12.7036 36.9477L12.6327 36.8733L12.6205 36.8603L12.5379 36.7723L12.4617 36.6909L12.4554 36.684L12.377 36.599L12.3737 36.5953L12.2114 36.4164L12.209 36.4139L12.1311 36.3265L12.1258 36.3205L12.0511 36.2359L11.9717 36.1452L11.9608 36.1328L11.8927 36.0538L11.8142 35.9623L11.7979 35.9432L11.7361 35.8701L11.7172 35.8478L11.6587 35.7778C10.9627 34.944 10.3252 34.0633 9.7514 33.1504L9.7516 33.1506Z" fill="#03AD6C"/>
<path fill-rule="evenodd" clip-rule="evenodd" d="M22.4051 20.142L31.3342 19.8552C32.6282 22.0711 33.6261 24.5064 34.1653 27.0253C34.6557 29.3158 34.767 31.6738 34.3773 33.9952L34.3497 34.0073L34.3178 34.0213L34.3146 34.0226L34.2583 34.0469L34.2235 34.0618L34.1985 34.0724L34.1599 34.0884L34.1387 34.0972L34.1369 34.098L34.0787 34.1217L34.0328 34.1404L34.0185 34.1459L33.969 34.1655L33.9582 34.1697L33.9566 34.1703C33.8968 34.1937 33.8368 34.2163 33.7766 34.2384V34.2386C32.6837 34.6411 31.5315 34.8523 30.3698 34.8942C28.9381 34.9459 27.4906 34.7416 26.1187 34.3225C26.3537 31.8512 26.0917 29.4026 25.4527 27.0482C24.7948 24.624 23.7343 22.2956 22.4051 20.1419L22.4051 20.142Z" fill="#03AD6C"/>
<path fill-rule="evenodd" clip-rule="evenodd" d="M24.4983 39.5523C23.9012 40.6469 23.147 41.6519 22.2321 42.506C23.3774 42.7005 24.5572 42.7434 25.7095 42.6036C27.0489 42.441 28.3486 42.0305 29.5079 41.3237L29.5174 41.3181C30.7424 40.6045 31.7591 39.6024 32.5536 38.4365C33.2374 37.4335 33.7563 36.3088 34.102 35.1412C32.9135 35.5782 31.6627 35.8076 30.4024 35.8533C28.914 35.9071 27.4124 35.7039 25.9848 35.2835C25.7155 36.7653 25.2225 38.2247 24.4983 39.5523H24.4983Z" fill="#03AD6C"/>
<path fill-rule="evenodd" clip-rule="evenodd" d="M4.1751 25.1045L0 32.9801L8.90836 32.699L13.1045 24.8477L4.1751 25.1045Z" fill="#03AD6C"/>
<path fill-rule="evenodd" clip-rule="evenodd" d="M35.4685 10.062L32.3015 10.1622L26.545 10.3438L26.4785 10.2385L26.4783 10.2383L26.4115 10.1331L26.4113 10.133L26.3436 10.0282L26.3434 10.0281L26.2753 9.92356L26.2752 9.9234L26.2065 9.81917L26.2063 9.819L26.1372 9.71501H26.137L26.0673 9.6113L26.0671 9.6111L25.9969 9.50787L25.9967 9.50771L25.9258 9.40465H25.9257L25.8543 9.30187L25.8541 9.30171L25.7823 9.19937L25.7821 9.19921L25.7096 9.09708H25.7095L25.6365 8.99531L25.6363 8.99515L25.5629 8.89382L25.5627 8.89362L25.4888 8.79266L25.4886 8.7925L25.4141 8.69182L25.4139 8.69162L25.3389 8.59131H25.3387L25.2632 8.49124L25.263 8.49107L25.1868 8.39137H25.1867L25.1102 8.29203H25.1101L25.033 8.19309L25.0328 8.19293L24.9552 8.09431H24.955L24.8768 7.99606H24.8766L24.798 7.8983L24.7979 7.89814L24.7187 7.80082L24.7185 7.80066L24.6388 7.70362V7.70346L24.5586 7.60679H24.5584L24.4776 7.51064V7.51048L24.3964 7.41461H24.3962L24.3147 7.3192L24.3145 7.31903L24.2324 7.22418L24.2322 7.22398L24.1495 7.12941H24.1493L24.0662 7.03512L23.9825 6.94136H23.9823L23.8982 6.84805L23.898 6.84789L23.8134 6.75506L23.8132 6.7549L23.7283 6.66251L23.7281 6.66235L23.6425 6.57049L23.6424 6.57033L23.5563 6.47883H23.5561L23.4696 6.38778L23.4694 6.38762L23.3824 6.29706H23.3822L23.2946 6.20678L23.2066 6.11702H23.2065L23.118 6.02771H23.1178L23.0289 5.93913V5.93892L22.9394 5.85075L22.9393 5.85058L22.8493 5.76293V5.76273L22.7589 5.6756H22.7588L22.6679 5.58868L22.5766 5.50248V5.50228L22.4847 5.41653L22.3924 5.33126L22.2996 5.24644L22.2065 5.16227L22.2064 5.16211L22.1128 5.07846L22.0187 4.99526H22.0185L21.9241 4.91254H21.9239L21.8291 4.83047V4.83031L21.7335 4.74884V4.74868L21.6377 4.6677H21.6375L21.5412 4.58725L21.4445 4.50724L21.3472 4.42796L21.2495 4.34905L21.1681 4.28401L21.1601 4.27774L21.0864 4.21937L21.0704 4.20671L21.0043 4.15526L20.9801 4.13637L20.9221 4.09147L20.8896 4.06647L20.8394 4.02801L20.7987 3.99706L20.7565 3.96503L20.7076 3.92798L20.6733 3.90233L20.6159 3.85958L20.5898 3.84016L20.524 3.79154L20.506 3.77848L20.4318 3.72412L20.422 3.71708L20.3391 3.65725L20.3374 3.65616L20.2529 3.59553L20.246 3.59072L20.1679 3.53554L20.1527 3.52478L20.0826 3.47572L20.059 3.45938L19.997 3.41663L19.965 3.39446L19.9113 3.35777L19.8707 3.33006L19.8252 3.2994L19.7759 3.26628L19.7388 3.2414L19.7265 3.23319L19.6545 3.18542L19.6522 3.1838L19.5854 3.14004L19.5653 3.12673L19.4897 3.07766L19.4781 3.0701L19.3938 3.01594L19.3906 3.01396L19.3027 2.95822L19.2973 2.95482L19.2147 2.90293L19.2004 2.89415L19.1264 2.84828L19.0596 2.80722L19.0377 2.7938L19.0061 2.77454L18.9488 2.73996L18.9083 2.71561L18.8596 2.68653L18.8102 2.65724L18.7702 2.63362L18.7118 2.5994L18.6804 2.58108L18.6131 2.54196L18.5906 2.52894L18.514 2.48533L18.5003 2.47749L18.4147 2.42907L18.4097 2.4264L18.319 2.37588L18.315 2.37362L18.228 2.32572L18.215 2.31869L18.1366 2.27601L18.1147 2.26416L18.0451 2.22695L18.0141 2.21045L17.9533 2.17817L17.9131 2.15726L17.8613 2.13015L17.8119 2.10451L17.8013 2.09905L17.6154 2.00464L17.6084 2.00108L17.5835 1.98858L17.5062 1.95028L17.4903 1.94243L17.4036 1.90012L17.3033 1.8515L17.3009 1.85041L17.2096 1.80693L17.1977 1.80147C17.0947 1.75277 16.9907 1.70504 16.8865 1.6582L16.8313 1.63349L16.7823 1.61168L16.7802 1.61075C16.6071 1.53406 16.4325 1.46024 16.2568 1.38901L16.256 1.38885L16.1602 1.35026L16.15 1.34618C15.9276 1.2576 15.7033 1.17326 15.4772 1.09341C16.5925 0.523897 17.8191 0.188537 19.0744 0.0604762C20.816 -0.117498 22.6105 0.102786 24.24 0.649854L24.2417 0.651836C26.6437 1.44629 28.8195 2.75549 30.7186 4.40208C32.5815 6.01731 34.1805 7.95958 35.468 10.0616L35.4685 10.062Z" fill="#00A6DE"/>
<path fill-rule="evenodd" clip-rule="evenodd" d="M25.7317 10.8502L21.5255 18.7201C20.1972 16.5817 18.5683 14.5953 16.6769 12.9176C14.8287 11.278 12.7298 9.93359 10.4167 9.03021C10.6605 7.62822 11.1429 6.2054 11.8464 4.91561C12.5097 3.69952 13.3699 2.60255 14.4113 1.75568L14.5109 1.78598L14.5182 1.78824L14.621 1.82028L14.6249 1.82157L14.7311 1.85539L14.7313 1.85555L14.8373 1.89021L14.8409 1.8913L14.9432 1.92561L14.9502 1.92787L15.0488 1.96169L15.0594 1.96524L15.1541 1.99837L15.1682 2.00339L15.259 2.03575L15.2767 2.04214L15.3639 2.07389L15.385 2.08158L15.4683 2.11252L15.4928 2.12182L15.5725 2.15192L15.6005 2.16267L15.6763 2.19204L15.7079 2.20438L15.7798 2.23273L15.8149 2.24669L15.8832 2.27407L15.9217 2.28964L15.9863 2.3161L15.9936 2.31913L16.0806 2.35517L16.094 2.36091C16.1933 2.4025 16.2919 2.44493 16.3902 2.48841L16.3953 2.49067L16.4504 2.51502L16.497 2.53589L16.5552 2.56215L16.5981 2.58168L16.6597 2.60996L16.699 2.6282L16.7045 2.63075L16.7997 2.67536L16.8677 2.7074L16.9002 2.72297L16.9712 2.75727L17.0001 2.77139L17.0998 2.82021L17.1774 2.85872L17.1994 2.86976L17.28 2.91045L17.2984 2.91991L17.3821 2.96271L17.3973 2.97056L17.484 3.01578L17.4958 3.02205L17.5856 3.06937L17.5939 3.07386L17.6869 3.12374L17.6918 3.12641L17.7877 3.1785L17.7895 3.17943L17.8868 3.23315L17.8884 3.23408L17.9835 3.28751L17.9885 3.29018L18.0801 3.34228L18.0883 3.34693L18.1765 3.39773L18.1878 3.40437L18.2724 3.45372L18.287 3.46221L18.3681 3.51026L18.3859 3.52086L18.4635 3.56738L18.4842 3.58004L18.5584 3.6251L18.6485 3.68055L18.653 3.68322L18.6802 3.70009L18.7474 3.74187L18.7776 3.761L18.8413 3.80141L18.8747 3.82257L18.9351 3.86116L18.9713 3.88458L19.0283 3.92163L19.1054 3.97215L19.1214 3.98254L19.1638 4.01061L19.214 4.04398L19.2595 4.07444L19.3064 4.10599L19.3547 4.13871L19.3984 4.16861L19.4497 4.20372L19.49 4.23154L19.5443 4.26928L19.5814 4.29521L19.6385 4.33525L19.6724 4.35932L19.7322 4.40183L19.763 4.4238L19.8256 4.46902L19.8532 4.489L19.9188 4.53669L19.9432 4.55465L20.0116 4.60493L20.0328 4.62062L20.1039 4.67369L20.122 4.68736L20.1959 4.74298L20.2109 4.75438L20.2256 4.76559L20.2994 4.82197L20.3787 4.88309L20.3877 4.89001L20.4696 4.95396L20.4755 4.95861L20.56 5.02527L20.5628 5.02753L20.6501 5.09711L20.7437 5.17279L20.747 5.17541L20.837 5.24883L20.8436 5.25429L20.9299 5.3256L20.9397 5.33381L21.0222 5.4027L21.0354 5.41374L21.1142 5.48048L21.1305 5.49443L21.2059 5.55883L21.2253 5.57553L21.2969 5.63754L21.3196 5.65732L21.3876 5.7169L21.4133 5.73951L21.4778 5.79671L21.5066 5.82235L21.5677 5.877L21.5996 5.90571L21.6572 5.95797C21.7146 6.00995 21.7716 6.06233 21.8282 6.11512L21.8348 6.12123L21.8754 6.159L21.9228 6.20342L21.9664 6.24464L22.0105 6.2863L22.057 6.33055L22.0978 6.36966L22.1471 6.41711L22.1845 6.45331L22.2367 6.50419L22.2709 6.53769L22.2895 6.55593L22.3567 6.62243L22.4145 6.67986L22.4422 6.70761L22.5026 6.76828L22.5273 6.79316L22.5903 6.85747L22.6117 6.87944L22.6775 6.94686L22.6958 6.966L22.7642 7.03702L22.7796 7.05308L22.8505 7.12743L22.8626 7.14045L22.9453 7.22839L23.0215 7.30985L23.0278 7.31677L23.1061 7.40175L23.1095 7.40539L23.2717 7.58434L23.2741 7.58688L23.352 7.67425L23.3573 7.6802L23.432 7.76482L23.5114 7.85558L23.5223 7.86792L23.5905 7.94692L23.669 8.03841L23.6853 8.05754L23.7471 8.1306L23.7659 8.15292L23.8244 8.22298C24.5205 9.05671 25.158 9.93744 25.7317 10.8503L25.7317 10.8502Z" fill="#00A6DE"/>
<path fill-rule="evenodd" clip-rule="evenodd" d="M13.0783 23.8587L4.14911 24.1455C2.85518 21.9296 1.85712 19.4943 1.31795 16.9754C0.827578 14.6849 0.716238 12.3269 1.10601 10.0057L1.22506 9.95382L1.25994 9.93893L1.28488 9.92846C1.42452 9.86981 1.56517 9.81451 1.70679 9.76225V9.76209C2.79979 9.35959 3.95178 9.14832 5.11362 9.1063C6.54517 9.05468 7.99274 9.25907 9.36466 9.6782C9.12963 12.1495 9.39171 14.5981 10.0307 16.9524C10.6886 19.3767 11.7492 21.7051 13.0783 23.8587H13.0783Z" fill="#00A6DE"/>
<path fill-rule="evenodd" clip-rule="evenodd" d="M10.985 4.44847C11.582 3.35385 12.3362 2.34886 13.2512 1.49474C12.1058 1.30019 10.9261 1.25735 9.77384 1.39714C8.43458 1.55975 7.13468 1.97022 5.97551 2.67706L5.96606 2.68264C4.74105 3.39628 3.72414 4.39835 2.92962 5.56421C2.24588 6.56725 1.72701 7.69209 1.38108 8.85976C2.56997 8.42275 3.82078 8.19321 5.08104 8.1475C6.56922 8.09366 8.07093 8.29692 9.49848 8.71726C9.76775 7.23546 10.2609 5.77603 10.9849 4.44851L10.985 4.44847Z" fill="#00A6DE"/>
<path fill-rule="evenodd" clip-rule="evenodd" d="M31.3083 18.8963L35.4834 11.0206L26.575 11.3017L22.3788 19.1531L31.3083 18.8963Z" fill="#00A6DE"/>
</svg>
