<svg width="18" height="18" viewBox="0 0 18 18" fill="none" xmlns="http://www.w3.org/2000/svg">
<g clip-path="url(#clip0_10_85)">
<path d="M11.25 0.84375C11.25 1.31133 11.6262 1.6875 12.0938 1.6875H13.9957L10.0793 5.60039L6.73594 2.73516C6.41953 2.46445 5.94844 2.46445 5.63555 2.73867L1.4168 6.39492C1.06523 6.70078 1.02656 7.23164 1.33242 7.58672C1.63828 7.9418 2.16914 7.97695 2.52422 7.67109L6.19453 4.48945L9.58008 7.38984C9.91406 7.67812 10.4133 7.65703 10.7262 7.34414L15.191 2.8793V4.78125C15.191 5.24883 15.5672 5.625 16.0348 5.625C16.5023 5.625 16.8785 5.24883 16.8785 4.78125V0.84375C16.8785 0.376172 16.5023 0 16.0348 0L12.0938 0C11.6262 0 11.25 0.376172 11.25 0.84375ZM3.63867 10.6875H14.3613C14.4879 11.707 15.2965 12.5121 16.3125 12.6387V14.3613C15.293 14.4879 14.4879 15.2965 14.3613 16.3125H3.63867C3.51211 15.293 2.70352 14.4879 1.6875 14.3613V12.6387C2.70352 12.5121 3.51211 11.7035 3.63867 10.6875ZM1.6875 9C0.755859 9 0 9.75586 0 10.6875V16.3125C0 17.2441 0.755859 18 1.6875 18H16.3125C17.2441 18 18 17.2441 18 16.3125V10.6875C18 9.75586 17.2441 9 16.3125 9H1.6875ZM9 15.75C9.59674 15.75 10.169 15.5129 10.591 15.091C11.0129 14.669 11.25 14.0967 11.25 13.5C11.25 12.9033 11.0129 12.331 10.591 11.909C10.169 11.4871 9.59674 11.25 9 11.25C8.40326 11.25 7.83097 11.4871 7.40901 11.909C6.98705 12.331 6.75 12.9033 6.75 13.5C6.75 14.0967 6.98705 14.669 7.40901 15.091C7.83097 15.5129 8.40326 15.75 9 15.75Z" fill="#475569"/>
</g>
<defs>
<clipPath id="clip0_10_85">
<rect width="18" height="18" fill="white"/>
</clipPath>
</defs>
</svg>
