<svg width="18" height="18" viewBox="0 0 18 18" fill="none" xmlns="http://www.w3.org/2000/svg">
<g clip-path="url(#clip0_10_103)">
<path d="M7.75093 1.40755L6.48847 1.87234C6.38801 1.9086 6.32104 2.0042 6.32104 2.10968C6.32104 2.21517 6.38801 2.31076 6.48847 2.34702L7.75093 2.81181L8.2231 4.05455C8.25994 4.15344 8.35705 4.21937 8.46421 4.21937C8.57137 4.21937 8.66848 4.15344 8.70531 4.05455L9.17748 2.81181L10.4399 2.34702C10.5404 2.31076 10.6074 2.21517 10.6074 2.10968C10.6074 2.0042 10.5404 1.9086 10.4399 1.87234L9.17748 1.40755L8.70531 0.164819C8.66848 0.0659276 8.57137 0 8.46421 0C8.35705 0 8.25994 0.0659276 8.2231 0.164819L7.75093 1.40755ZM15.3424 1.58226L16.5011 2.72281L12.8242 6.33894L11.6656 5.19839L15.3424 1.58226ZM2.57049 14.1547L10.5304 6.31916L11.689 7.45971L3.72914 15.2952L2.57049 14.1547ZM14.2039 0.46479L1.43528 13.0339C0.809068 13.6503 0.809068 14.6524 1.43528 15.2721L2.59393 16.4127C3.22014 17.0291 4.23814 17.0291 4.8677 16.4127L17.6363 3.84028C18.2625 3.22386 18.2625 2.22176 17.6363 1.60204L16.4777 0.46479C15.8514 -0.151634 14.8334 -0.151634 14.2039 0.46479ZM0.142676 3.86336C-0.0080155 3.9194 -0.108477 4.06114 -0.108477 4.21937C-0.108477 4.37759 -0.0080155 4.51934 0.142676 4.57538L2.03469 5.27421L2.74462 7.13667C2.80155 7.285 2.94554 7.38389 3.10628 7.38389C3.26702 7.38389 3.41101 7.285 3.46794 7.13667L4.17787 5.27421L6.06988 4.57538C6.22058 4.51934 6.32104 4.37759 6.32104 4.21937C6.32104 4.06114 6.22058 3.9194 6.06988 3.86336L4.17787 3.16453L3.46794 1.30207C3.41101 1.15373 3.26702 1.05484 3.10628 1.05484C2.94554 1.05484 2.80155 1.15373 2.74462 1.30207L2.03469 3.16453L0.142676 3.86336ZM11.9301 12.3021C11.7794 12.3581 11.679 12.4999 11.679 12.6581C11.679 12.8163 11.7794 12.9581 11.9301 13.0141L13.8221 13.7129L14.5321 15.5754C14.589 15.7237 14.733 15.8226 14.8937 15.8226C15.0545 15.8226 15.1985 15.7237 15.2554 15.5754L15.9653 13.7129L17.8573 13.0141C18.008 12.9581 18.1085 12.8163 18.1085 12.6581C18.1085 12.4999 18.008 12.3581 17.8573 12.3021L15.9653 11.6033L15.2554 9.74081C15.1985 9.59247 15.0545 9.49358 14.8937 9.49358C14.733 9.49358 14.589 9.59247 14.5321 9.74081L13.8221 11.6033L11.9301 12.3021Z" fill="#475569"/>
</g>
<defs>
<clipPath id="clip0_10_103">
<rect width="18" height="18" fill="white"/>
</clipPath>
</defs>
</svg>
