<svg width="18" height="18" viewBox="0 0 18 18" fill="none" xmlns="http://www.w3.org/2000/svg">
<g clip-path="url(#clip0_10_75)">
<path d="M12.709 7.67812C12.8566 8.09297 12.9375 8.53594 12.9375 9C12.9375 11.1762 11.1762 12.9375 9 12.9375C6.82383 12.9375 5.0625 11.1762 5.0625 9C5.0625 6.82383 6.82383 5.0625 9 5.0625C9.46406 5.0625 9.91055 5.14336 10.3219 5.29102L10.4941 5.11875L10.227 3.50859C9.82969 3.4207 9.42188 3.375 9 3.375C5.89219 3.375 3.375 5.89219 3.375 9C3.375 12.1078 5.89219 14.625 9 14.625C12.1078 14.625 14.625 12.1078 14.625 9C14.625 8.57812 14.5793 8.17031 14.4914 7.77305L12.8812 7.50586L12.709 7.67812ZM16.1332 7.39336C16.2492 7.91016 16.309 8.44805 16.309 9C16.309 13.0395 13.0359 16.3125 8.99648 16.3125C4.95703 16.3125 1.6875 13.0395 1.6875 9C1.6875 4.96055 4.96055 1.6875 9 1.6875C9.55195 1.6875 10.0898 1.74727 10.6066 1.86328L11.9707 0.499219C11.0391 0.175781 10.0406 0 9 0C4.02891 0 0 4.02891 0 9C0 13.9711 4.02891 18 9 18C13.9711 18 18 13.9711 18 9C18 7.95937 17.8242 6.96094 17.4973 6.0293L16.1367 7.39336H16.1332ZM12.832 6.35977L14.6145 6.65508C14.973 6.71484 15.3387 6.59883 15.5953 6.34219L17.3953 4.54219C17.6801 4.25742 17.5816 3.77227 17.2055 3.62109L15.1875 2.8125L14.3789 0.791016C14.2277 0.414844 13.7461 0.316406 13.4578 0.601172L11.6578 2.40469C11.4012 2.66133 11.2852 3.02695 11.3449 3.38555L11.6402 5.16797L8.40234 8.40234C8.07187 8.73281 8.07187 9.26719 8.40234 9.59414C8.73281 9.92109 9.26719 9.92461 9.59414 9.59414L12.832 6.35625V6.35977Z" fill="#475569"/>
</g>
<defs>
<clipPath id="clip0_10_75">
<rect width="18" height="18" fill="white"/>
</clipPath>
</defs>
</svg>
