<svg width="12" height="12" viewBox="0 0 12 12" fill="none" xmlns="http://www.w3.org/2000/svg">
<path d="M6.38992 1.16518C6.28724 1.06027 6.14885 1 6.00153 1C5.85421 1 5.71581 1.06027 5.61314 1.16518L1.86314 5.09375C1.65778 5.30804 1.66671 5.64732 1.88099 5.85045C2.09528 6.05357 2.43456 6.04688 2.63769 5.83259L5.46581 2.87277V10.4643C5.46581 10.7612 5.70465 11 6.00153 11C6.2984 11 6.53724 10.7612 6.53724 10.4643V2.87277L9.36314 5.83482C9.56849 6.04911 9.90555 6.0558 10.1198 5.85268C10.3341 5.64955 10.3408 5.31027 10.1377 5.09598L6.38769 1.16741L6.38992 1.16518Z" fill="#039855"/>
</svg>
