<svg width="32" height="32" viewBox="0 0 32 32" fill="none" xmlns="http://www.w3.org/2000/svg">
<g clip-path="url(#clip0_0_246)">
<path d="M31.5177 19.8705C29.3808 28.442 20.6992 33.6585 12.1267 31.521C3.55778 29.3841 -1.65868 20.702 0.479177 12.1312C2.61515 3.55871 11.2967 -1.65814 19.8666 0.478775C28.4385 2.61569 33.6546 11.2987 31.5175 19.8706L31.5176 19.8705H31.5177Z" fill="#F7931A"/>
<path d="M23.0535 13.7204C23.3719 11.5911 21.7509 10.4466 19.5342 9.68305L20.2533 6.79879L18.4976 6.36131L17.7975 9.16963C17.336 9.0545 16.8619 8.94603 16.3908 8.8385L17.0959 6.01165L15.3413 5.57416L14.6218 8.45748C14.2398 8.37051 13.8647 8.28456 13.5007 8.194L13.5027 8.18493L11.0815 7.58031L10.6145 9.45555C10.6145 9.45555 11.9171 9.75414 11.8897 9.77252C12.6006 9.94997 12.7292 10.4206 12.7079 10.7937L11.8887 14.0795C11.9377 14.0919 12.0012 14.1099 12.0712 14.1381C12.0127 14.1235 11.9503 14.1077 11.8857 14.0922L10.7375 18.6952C10.6506 18.9112 10.4301 19.2354 9.933 19.1123C9.9506 19.1378 8.65691 18.7938 8.65691 18.7938L7.78522 20.8036L10.07 21.3731C10.4951 21.4797 10.9116 21.5912 11.3218 21.6961L10.5953 24.6135L12.349 25.0509L13.0685 22.1646C13.5476 22.2946 14.0125 22.4146 14.4677 22.5277L13.7506 25.4005L15.5064 25.8379L16.2329 22.9261C19.2268 23.4927 21.4779 23.2642 22.4255 20.5563C23.189 18.376 22.3875 17.1185 20.8124 16.2984C21.9596 16.0338 22.8237 15.2793 23.0541 13.7206L23.0536 13.7202L23.0535 13.7204ZM19.042 19.3455C18.4994 21.5257 14.8286 20.3471 13.6384 20.0516L14.6026 16.1866C15.7926 16.4837 19.6091 17.0717 19.0421 19.3455H19.042ZM19.585 13.6888C19.0901 15.672 16.0348 14.6644 15.0436 14.4174L15.9178 10.9121C16.9089 11.1591 20.1006 11.6202 19.5852 13.6888H19.585Z" fill="white"/>
</g>
<defs>
<clipPath id="clip0_0_246">
<rect width="32" height="32" fill="white"/>
</clipPath>
</defs>
</svg>
