<svg width="12" height="12" viewBox="0 0 12 12" fill="none" xmlns="http://www.w3.org/2000/svg">
<path d="M6.38992 10.8348C6.28724 10.9397 6.14885 11 6.00153 11C5.85421 11 5.71581 10.9397 5.61314 10.8348L1.86314 6.90625C1.65778 6.69196 1.66671 6.35268 1.88099 6.14955C2.09528 5.94643 2.43456 5.95312 2.63769 6.16741L5.46581 9.12723V1.53571C5.46581 1.23884 5.70465 1 6.00153 1C6.2984 1 6.53724 1.23884 6.53724 1.53571V9.12723L9.36314 6.16518C9.56849 5.95089 9.90555 5.9442 10.1198 6.14732C10.3341 6.35045 10.3408 6.68973 10.1377 6.90402L6.38769 10.8326L6.38992 10.8348Z" fill="#F04438"/>
</svg>
