<svg width="16" height="16" viewBox="0 0 16 16" fill="none" xmlns="http://www.w3.org/2000/svg">
<path d="M14.2339 7.00035H14.4994C14.915 7.00035 15.2493 6.66602 15.2493 6.25046V2.25102C15.2493 1.94794 15.0681 1.67298 14.7869 1.55737C14.5057 1.44176 14.1839 1.50425 13.9683 1.71985L12.6685 3.01966C9.93134 0.316922 5.52259 0.326296 2.8011 3.05091C0.0671134 5.7849 0.0671134 10.2155 2.8011 12.9495C5.53509 15.6835 9.96571 15.6835 12.6997 12.9495C13.0903 12.5589 13.0903 11.9247 12.6997 11.5341C12.3091 11.1435 11.6748 11.1435 11.2843 11.5341C9.33143 13.4869 6.16625 13.4869 4.2134 11.5341C2.26055 9.58124 2.26055 6.41606 4.2134 4.46321C6.15688 2.51974 9.29706 2.51036 11.253 4.43196L9.96884 5.71928C9.75324 5.93488 9.69075 6.25671 9.80636 6.53792C9.92197 6.81913 10.1969 7.00035 10.5 7.00035H14.2339Z" fill="#475569"/>
</svg>
