<svg width="16" height="16" viewBox="0 0 16 16" fill="none" xmlns="http://www.w3.org/2000/svg">
<path d="M8 0C7.44682 0 6.9999 0.446875 6.9999 1V1.6C4.71842 2.0625 2.9995 4.08125 2.9995 6.5V7.29375C2.9995 8.7125 2.51508 10.0906 1.63061 11.1969L1.16494 11.7812C0.983675 12.0063 0.949296 12.3156 1.07431 12.575C1.19932 12.8344 1.46185 13 1.74938 13H14.2506C14.5382 13 14.8007 12.8344 14.9257 12.575C15.0507 12.3156 15.0163 12.0063 14.8351 11.7812L14.3694 11.2C13.4849 10.0906 13.0005 8.7125 13.0005 7.29375V6.5C13.0005 4.08125 11.2816 2.0625 9.0001 1.6V1C9.0001 0.446875 8.55318 0 8 0ZM8 3C9.93457 3 11.5003 4.56563 11.5003 6.5V7.29375C11.5003 8.79062 11.9348 10.25 12.7411 11.5H3.2589C4.06523 10.25 4.49965 8.79062 4.49965 7.29375V6.5C4.49965 4.56563 6.06543 3 8 3ZM10.0002 14H8H5.9998C5.9998 14.5312 6.2092 15.0406 6.58423 15.4156C6.95927 15.7906 7.4687 16 8 16C8.5313 16 9.04073 15.7906 9.41576 15.4156C9.7908 15.0406 10.0002 14.5312 10.0002 14Z" fill="#475569"/>
</svg>
